<?xml version="1.0" standalone="no"?>
<!DOCTYPE svg PUBLIC "-//W3C//DTD SVG 20010904//EN"
 "http://www.w3.org/TR/2001/REC-SVG-20010904/DTD/svg10.dtd">
<svg version="1.0" xmlns="http://www.w3.org/2000/svg"
 width="900.000000pt" height="807.000000pt" viewBox="0 0 900.000000 807.000000"
 preserveAspectRatio="xMidYMid meet">

<g transform="translate(0.000000,807.000000) scale(0.100000,-0.100000)"
fill="#000000" stroke="none">
<path d="M4247 7824 c-3 -4 -34 -10 -69 -15 -125 -16 -203 -30 -218 -38 -9 -5
-39 -12 -68 -16 -29 -4 -54 -11 -57 -15 -3 -4 -28 -11 -55 -15 -27 -4 -52 -11
-56 -16 -3 -5 -18 -9 -33 -9 -15 0 -56 -12 -92 -26 -35 -14 -83 -32 -107 -40
-24 -8 -78 -31 -120 -51 -42 -19 -105 -48 -139 -64 -33 -15 -64 -33 -68 -38
-3 -6 -13 -11 -20 -11 -32 0 -318 -188 -617 -405 -113 -82 -216 -157 -228
-165 -12 -8 -81 -60 -154 -115 -73 -55 -164 -122 -204 -148 -60 -41 -415 -299
-447 -324 -5 -5 -26 -19 -45 -33 -205 -142 -297 -249 -356 -415 -24 -69 -31
-271 -11 -317 9 -18 18 -45 21 -60 19 -84 156 -256 258 -325 85 -58 113 -77
139 -100 14 -13 44 -36 66 -51 22 -15 67 -47 100 -72 33 -25 70 -52 83 -60 34
-23 435 -314 622 -452 92 -68 176 -129 185 -135 10 -7 59 -43 108 -80 50 -38
98 -72 107 -78 9 -5 34 -22 55 -36 70 -48 147 -96 221 -138 41 -22 85 -50 99
-61 14 -11 29 -20 34 -20 5 0 44 -16 86 -36 151 -70 178 -82 218 -94 45 -14
66 -22 110 -40 50 -20 140 -48 295 -91 40 -11 125 -26 225 -40 39 -6 88 -16
110 -22 56 -17 754 -17 810 0 22 6 72 16 110 22 128 18 285 52 330 71 11 5 34
11 50 15 32 6 159 51 187 66 10 5 24 9 33 9 18 0 63 19 248 105 54 25 100 45
103 45 3 0 20 11 37 24 18 13 59 38 92 56 33 18 74 43 90 55 17 13 45 30 63
39 18 10 99 65 180 124 81 59 165 119 187 134 22 15 52 38 67 50 42 36 275
208 282 208 4 0 422 303 453 330 7 5 16 10 20 10 4 0 28 18 53 41 25 22 61 49
81 59 19 10 41 25 48 34 7 8 55 45 107 82 109 77 219 189 252 257 13 25 27 49
32 52 4 3 11 24 15 48 4 23 14 51 21 62 20 28 19 237 0 268 -8 12 -17 38 -21
57 -8 44 -41 114 -61 130 -7 7 -14 16 -14 21 0 22 -77 100 -167 169 -62 49
-249 185 -563 412 -107 77 -197 144 -198 149 -2 5 -18 16 -35 23 -18 8 -46 27
-63 43 -18 15 -42 35 -54 43 -36 25 -192 138 -320 231 -108 80 -168 122 -318
222 -120 80 -166 106 -312 182 -85 44 -262 124 -300 136 -14 4 -50 17 -80 29
-30 12 -73 26 -95 30 -60 12 -127 31 -150 41 -11 4 -45 13 -75 19 -30 6 -89
18 -130 26 -41 8 -102 20 -135 26 -66 11 -827 23 -838 12z m823 -42 c36 -6 99
-18 140 -27 41 -9 102 -21 135 -26 33 -6 64 -15 70 -20 5 -5 16 -9 25 -9 18 0
142 -37 187 -56 17 -8 38 -14 46 -14 9 0 19 -4 22 -10 3 -5 17 -10 31 -10 13
0 32 -4 42 -9 9 -5 28 -13 42 -19 41 -17 251 -120 307 -152 129 -70 175 -98
279 -167 61 -40 126 -87 145 -103 52 -45 53 -46 69 -52 8 -3 97 -67 197 -142
100 -75 185 -136 188 -136 3 0 11 -5 18 -10 17 -14 81 -62 106 -80 68 -47 372
-270 384 -281 8 -8 24 -21 36 -29 54 -36 264 -189 348 -252 86 -64 183 -168
183 -195 0 -7 4 -13 9 -13 5 0 12 -13 16 -30 4 -16 10 -30 15 -30 4 0 11 -20
14 -45 4 -25 14 -51 22 -59 20 -20 20 -211 0 -231 -7 -8 -17 -34 -20 -60 -4
-25 -11 -45 -16 -45 -4 0 -11 -12 -14 -26 -11 -41 -69 -124 -122 -175 -27 -26
-116 -95 -199 -154 -82 -60 -160 -115 -171 -124 -12 -9 -32 -23 -44 -31 -12
-8 -28 -19 -34 -25 -6 -5 -31 -23 -56 -40 -25 -16 -89 -63 -144 -105 -54 -41
-124 -94 -155 -117 -31 -23 -61 -47 -68 -53 -7 -5 -15 -10 -18 -10 -3 0 -91
-62 -194 -137 -104 -76 -224 -163 -267 -193 -66 -46 -166 -122 -210 -159 -6
-5 -26 -17 -44 -26 -19 -10 -60 -35 -91 -56 -31 -22 -59 -39 -63 -39 -3 0 -34
-17 -68 -37 -96 -58 -281 -146 -333 -159 -14 -3 -28 -10 -31 -15 -3 -5 -12 -9
-21 -9 -8 0 -29 -6 -46 -14 -18 -8 -77 -29 -132 -46 -55 -18 -109 -36 -120
-40 -47 -19 -204 -53 -330 -71 -38 -6 -88 -16 -110 -22 -56 -17 -734 -17 -790
0 -22 6 -71 16 -110 22 -99 14 -184 29 -225 40 -81 22 -247 75 -277 87 -17 8
-35 14 -41 14 -5 0 -23 7 -38 15 -16 8 -37 15 -46 15 -9 0 -20 4 -23 10 -3 6
-12 10 -20 10 -13 0 -91 34 -205 88 -74 36 -254 138 -313 178 -26 18 -56 36
-67 39 -11 4 -20 10 -20 15 0 5 -8 11 -17 14 -10 4 -32 19 -49 34 -18 15 -42
34 -54 42 -18 12 -96 70 -145 108 -5 4 -23 16 -40 26 -16 11 -105 75 -197 143
-93 68 -172 123 -178 123 -5 0 -10 4 -10 8 0 5 -10 14 -22 20 -13 6 -63 43
-113 83 -76 60 -167 127 -249 182 -10 6 -83 59 -162 117 -79 58 -166 121 -194
140 -28 19 -61 43 -73 54 -12 10 -32 25 -44 33 -52 35 -173 228 -173 278 0 11
-7 29 -15 39 -17 23 -22 231 -5 241 5 3 14 25 20 48 31 117 138 259 260 343
47 32 74 51 135 96 259 193 716 525 760 554 17 10 35 22 40 26 116 89 356 263
404 293 8 6 20 15 26 22 27 31 351 233 374 233 5 0 11 4 13 8 4 12 311 162
331 162 8 0 19 5 22 10 3 6 17 10 29 10 13 0 37 7 52 15 16 8 37 15 46 15 9 0
19 4 22 9 4 5 24 12 46 16 22 4 42 10 45 15 3 4 28 11 55 15 27 4 52 11 55 15
3 4 29 11 58 15 28 3 61 10 72 15 23 10 120 28 212 38 34 4 65 11 69 15 11 11
738 1 814 -11z"/>
<path d="M4455 7339 c-143 -10 -283 -27 -315 -38 -14 -5 -47 -12 -75 -16 -47
-6 -126 -27 -170 -45 -11 -4 -42 -14 -70 -20 -50 -12 -163 -51 -220 -76 -52
-22 -119 -54 -135 -64 -8 -5 -28 -15 -45 -23 -45 -21 -239 -129 -245 -137 -3
-3 -23 -17 -45 -30 -22 -13 -44 -28 -50 -32 -37 -30 -232 -170 -281 -203 -32
-22 -63 -45 -69 -52 -5 -6 -98 -75 -205 -152 -107 -77 -203 -146 -212 -153 -9
-7 -25 -19 -35 -26 -105 -72 -295 -211 -324 -236 -19 -17 -46 -38 -58 -46 -26
-17 -80 -55 -211 -150 -99 -72 -126 -110 -117 -166 8 -50 36 -83 118 -139 41
-27 79 -54 86 -60 27 -22 40 -32 88 -65 28 -19 52 -37 55 -40 5 -5 36 -27 126
-89 32 -22 98 -71 145 -108 48 -38 96 -75 109 -83 12 -8 81 -58 154 -110 72
-53 168 -123 214 -155 255 -183 318 -229 327 -240 11 -13 67 -52 165 -113 36
-23 70 -46 77 -51 7 -6 15 -11 18 -11 3 0 48 -25 100 -55 53 -30 99 -55 103
-55 4 0 34 -14 66 -30 32 -17 66 -30 75 -30 10 0 21 -4 26 -8 6 -5 39 -19 75
-31 36 -13 72 -26 80 -31 9 -4 31 -11 50 -14 19 -4 44 -11 55 -15 43 -17 134
-41 215 -56 47 -9 101 -20 121 -26 34 -8 336 -32 409 -32 76 0 377 24 410 33
19 5 73 16 120 25 89 17 184 42 210 55 9 4 35 11 58 15 23 4 44 11 48 16 3 5
13 9 22 9 9 0 29 6 44 14 15 8 40 17 57 21 17 4 33 11 36 16 4 5 13 9 21 9 36
0 333 157 452 239 15 10 53 35 84 55 31 20 63 42 70 49 18 18 266 201 348 257
12 8 77 55 143 103 67 48 155 111 195 140 41 29 97 71 125 95 29 23 57 46 62
50 6 4 39 27 75 52 36 24 127 90 202 145 76 55 162 117 191 137 94 64 112 151
44 216 -26 25 -177 136 -251 184 -11 7 -51 38 -90 69 -39 31 -116 88 -171 127
-55 40 -108 77 -117 84 -9 7 -26 20 -38 28 -51 36 -376 270 -385 278 -20 16
-170 127 -186 137 -9 6 -58 42 -110 80 -157 117 -338 232 -421 268 -16 6 -28
15 -28 18 0 4 -13 10 -30 14 -16 4 -32 11 -35 16 -4 5 -27 18 -53 30 -26 11
-56 24 -67 29 -47 22 -165 64 -230 81 -111 29 -159 44 -170 50 -5 4 -39 10
-75 14 -36 4 -70 11 -75 15 -6 5 -46 12 -90 15 -44 4 -93 10 -110 15 -44 12
-333 18 -460 9z m450 -39 c22 -5 74 -12 115 -15 41 -4 80 -10 85 -15 6 -4 37
-11 69 -15 32 -4 68 -10 80 -15 12 -4 46 -15 76 -23 240 -71 255 -76 450 -171
165 -81 286 -154 440 -265 258 -188 390 -283 452 -326 39 -27 94 -69 122 -92
27 -24 55 -43 60 -43 6 0 37 -23 70 -50 32 -28 68 -56 80 -62 11 -6 98 -68
191 -137 94 -68 208 -151 255 -183 150 -103 197 -144 203 -174 8 -41 -18 -88
-66 -121 -56 -37 -57 -38 -97 -71 -49 -39 -241 -179 -325 -237 -38 -26 -90
-63 -115 -82 -25 -19 -103 -77 -175 -129 -71 -52 -157 -114 -190 -139 -33 -25
-96 -72 -140 -104 -44 -31 -138 -100 -210 -152 -71 -52 -157 -113 -190 -134
-33 -22 -62 -43 -65 -46 -3 -4 -32 -21 -65 -40 -33 -18 -73 -43 -90 -55 -32
-23 -260 -134 -275 -134 -5 0 -24 -6 -42 -14 -18 -8 -53 -22 -78 -31 -25 -9
-53 -21 -62 -26 -9 -5 -35 -12 -58 -15 -22 -4 -43 -11 -46 -15 -3 -5 -13 -9
-23 -9 -10 0 -41 -6 -67 -14 -27 -8 -80 -21 -119 -29 -38 -8 -93 -20 -120 -26
-123 -28 -697 -29 -802 -2 -21 5 -76 17 -123 27 -47 9 -104 23 -128 30 -23 8
-51 14 -62 14 -10 0 -21 4 -24 9 -3 4 -24 11 -46 15 -23 3 -49 10 -58 15 -9 5
-57 24 -107 42 -133 47 -295 123 -350 164 -16 12 -46 30 -65 40 -54 27 -162
100 -320 216 -80 58 -185 133 -235 167 -49 34 -101 73 -115 85 -14 13 -66 53
-117 90 -51 36 -111 80 -135 97 -24 17 -97 70 -163 118 -67 48 -141 102 -165
119 -25 18 -75 53 -113 79 -37 25 -67 50 -67 56 0 5 -8 12 -18 16 -10 4 -57
35 -104 70 -58 42 -92 75 -103 99 -17 35 -17 38 0 70 17 30 86 87 225 183 28
19 123 88 212 154 89 65 185 133 214 152 29 19 70 49 91 69 21 19 42 35 47 35
5 0 32 19 61 43 28 23 93 71 144 107 50 36 133 96 184 133 142 105 268 196
295 212 31 19 107 70 112 75 16 16 202 126 235 139 6 2 44 19 85 38 107 49
107 49 190 81 41 16 98 34 125 41 28 7 59 17 70 21 44 18 123 39 170 45 28 4
61 11 75 16 101 36 629 57 755 29z"/>
<path d="M4455 6889 c-192 -29 -409 -123 -565 -245 -59 -45 -195 -182 -223
-224 -160 -235 -215 -378 -237 -620 -33 -350 86 -699 322 -940 148 -151 282
-240 468 -307 97 -35 107 -38 250 -58 129 -18 197 -18 320 0 135 20 178 30
240 55 30 12 64 24 75 28 11 3 34 13 50 23 17 9 67 38 113 63 45 26 82 50 82
54 0 4 12 15 28 25 59 36 205 190 256 271 86 137 156 305 177 426 37 209 24
455 -32 624 -32 99 -93 229 -116 247 -7 7 -13 15 -13 20 0 21 -114 160 -191
234 -95 91 -177 148 -294 204 -169 81 -199 91 -370 121 -61 10 -271 10 -340
-1z m355 -40 c30 -6 75 -13 100 -16 25 -3 49 -9 54 -14 6 -5 16 -9 24 -9 42 0
258 -112 318 -165 6 -5 22 -17 35 -25 83 -53 314 -323 334 -390 4 -14 11 -27
16 -30 5 -3 10 -15 12 -25 1 -11 7 -27 12 -35 5 -8 11 -24 12 -35 2 -11 7 -29
12 -40 14 -30 37 -122 51 -196 14 -80 15 -316 0 -353 -5 -15 -10 -40 -10 -56
0 -16 -4 -39 -9 -52 -5 -13 -21 -59 -34 -104 -14 -44 -36 -100 -48 -125 -24
-47 -97 -166 -114 -186 -60 -73 -140 -157 -184 -193 -29 -25 -59 -50 -65 -56
-6 -5 -44 -30 -84 -55 -40 -24 -85 -52 -100 -61 -15 -9 -37 -17 -49 -17 -12
-1 -25 -5 -28 -11 -3 -5 -12 -10 -20 -10 -8 0 -26 -5 -42 -12 -62 -26 -187
-51 -320 -64 -97 -9 -320 21 -408 56 -11 4 -42 15 -70 25 -64 21 -175 76 -175
87 0 4 -6 8 -14 8 -8 0 -21 6 -28 13 -7 6 -32 25 -55 40 -67 46 -217 201 -272
283 -28 41 -51 79 -51 83 0 5 -3 11 -7 13 -10 4 -63 113 -63 128 0 7 -6 26
-13 43 -89 208 -94 526 -11 762 9 28 18 57 19 65 3 29 75 163 122 229 68 94
235 257 324 318 85 57 169 101 244 128 28 9 59 21 70 25 11 5 38 11 60 15 22
3 63 9 90 14 71 12 300 11 365 0z"/>
<path d="M4460 6383 c-25 -8 -54 -18 -65 -23 -11 -5 -31 -12 -45 -16 -14 -4
-42 -18 -62 -30 -21 -13 -41 -24 -46 -24 -4 0 -50 -42 -103 -92 -119 -116
-180 -222 -195 -338 -2 -19 -9 -48 -14 -64 -13 -39 -13 -178 1 -213 6 -15 11
-45 11 -66 0 -20 4 -39 8 -42 5 -3 11 -23 15 -45 4 -22 11 -40 16 -40 5 0 9
-6 9 -14 0 -8 6 -21 13 -28 6 -7 25 -33 41 -58 68 -105 278 -270 344 -270 13
0 32 -5 44 -11 53 -29 363 -28 391 0 6 6 24 11 41 11 32 0 116 44 181 93 76
59 185 180 185 206 0 6 3 11 8 11 10 0 50 78 58 115 4 17 10 35 14 40 4 6 8
30 9 54 1 24 6 52 11 62 13 23 13 140 0 173 -5 14 -10 44 -11 68 -1 24 -6 48
-9 53 -4 6 -11 25 -15 44 -4 19 -20 56 -36 81 -16 26 -29 52 -29 58 0 20 -189
197 -237 222 -26 14 -50 28 -53 31 -3 4 -16 9 -30 13 -14 4 -34 11 -45 16 -11
4 -43 15 -72 24 -67 21 -268 20 -333 -1z m329 -34 c64 -21 75 -25 156 -65 109
-53 226 -169 278 -275 56 -116 92 -265 84 -344 -29 -272 -160 -477 -372 -581
-38 -19 -77 -34 -86 -34 -9 0 -34 -7 -55 -16 -27 -12 -71 -16 -163 -15 -105 0
-138 4 -201 24 -216 69 -366 214 -433 417 -54 161 -59 245 -22 384 38 147 82
226 186 329 48 48 93 87 99 87 6 0 27 11 48 24 20 12 48 26 62 30 14 4 34 11
45 15 11 5 34 13 50 19 42 14 281 15 324 1z"/>
<path d="M1245 3343 c-34 -9 -100 -59 -138 -106 l-37 -45 0 -104 c0 -136 -10
-123 283 -374 276 -236 466 -385 583 -460 32 -21 65 -44 72 -51 8 -7 28 -21
45 -30 18 -8 48 -28 67 -43 59 -47 491 -276 610 -324 19 -8 60 -25 90 -39 60
-27 192 -75 280 -103 30 -9 60 -20 65 -24 6 -4 29 -11 52 -15 24 -4 45 -11 49
-16 3 -5 13 -9 23 -9 10 0 49 -9 87 -20 38 -12 87 -26 109 -31 22 -6 55 -15
72 -20 18 -6 56 -15 85 -20 160 -30 223 -41 318 -54 58 -8 141 -20 185 -27
108 -16 850 -16 965 0 333 46 468 70 630 112 19 5 55 14 80 20 25 6 56 15 70
19 14 5 59 19 100 32 124 36 348 113 405 138 11 5 56 24 100 43 99 41 399 193
480 242 33 20 64 36 69 36 4 0 25 13 45 28 20 16 65 46 101 67 36 20 67 41 70
45 3 4 25 20 49 35 55 34 220 156 281 206 84 70 326 274 391 329 35 30 97 87
137 126 l72 72 0 107 0 107 -37 45 c-76 93 -160 126 -274 109 -54 -8 -106 -46
-366 -268 -207 -177 -379 -316 -443 -358 -13 -8 -50 -34 -82 -58 -102 -74
-292 -185 -433 -255 -44 -21 -93 -46 -110 -55 -16 -8 -37 -19 -45 -23 -64 -34
-281 -120 -390 -156 -41 -13 -82 -28 -91 -33 -9 -5 -34 -12 -55 -16 -22 -3
-43 -10 -49 -14 -5 -5 -31 -11 -58 -15 -26 -4 -49 -11 -52 -15 -3 -5 -24 -11
-48 -15 -23 -3 -51 -10 -62 -15 -39 -17 -368 -70 -575 -92 -150 -16 -643 -16
-785 0 -244 28 -496 70 -630 107 -33 9 -80 21 -105 27 -25 6 -49 14 -55 18 -5
4 -27 11 -49 14 -21 4 -46 11 -55 16 -9 5 -50 20 -91 33 -149 49 -313 115
-405 164 -16 9 -37 20 -45 24 -254 117 -478 255 -729 447 -129 100 -119 91
-385 320 -229 197 -272 223 -360 221 -34 -1 -70 -4 -81 -6z m170 -42 c22 -10
61 -35 86 -57 25 -21 68 -57 95 -79 26 -22 71 -62 99 -89 83 -80 459 -385 490
-397 6 -2 48 -29 95 -60 147 -98 291 -183 395 -235 55 -27 102 -52 103 -56 2
-5 8 -8 13 -8 11 0 64 -23 187 -81 46 -22 120 -51 165 -65 45 -14 89 -30 98
-34 9 -5 33 -12 53 -15 20 -4 38 -11 41 -15 3 -5 24 -11 48 -15 23 -4 47 -11
52 -16 6 -4 31 -13 55 -19 268 -67 353 -85 550 -115 201 -31 324 -39 585 -39
267 0 409 9 595 39 202 32 367 65 385 76 6 4 34 10 62 14 29 4 55 10 58 15 3
4 25 11 50 14 24 4 47 11 50 15 2 5 25 12 50 15 24 4 47 11 50 15 2 5 21 12
41 16 20 3 44 10 53 15 9 5 43 16 76 25 32 9 95 34 140 54 44 21 95 44 114 52
159 66 499 254 653 362 37 26 70 47 73 47 3 0 11 4 18 10 33 27 78 62 137 106
36 27 76 59 90 71 50 41 237 204 315 274 183 162 236 190 340 175 48 -6 64
-16 137 -88 l48 -46 0 -90 c0 -90 0 -90 -37 -132 -33 -37 -113 -110 -209 -189
-96 -80 -154 -131 -194 -170 -25 -24 -70 -60 -100 -81 -30 -21 -74 -55 -97
-77 -22 -21 -47 -42 -55 -48 -7 -5 -29 -22 -48 -36 -90 -67 -296 -200 -414
-268 -22 -13 -55 -34 -73 -47 -17 -13 -37 -24 -43 -24 -6 0 -27 -10 -48 -23
-42 -25 -198 -103 -287 -142 -33 -15 -78 -35 -100 -45 -80 -36 -111 -48 -155
-60 -25 -7 -49 -15 -55 -20 -5 -4 -26 -11 -45 -15 -19 -4 -41 -11 -50 -16 -31
-17 -233 -80 -330 -104 -30 -8 -73 -19 -95 -25 -153 -44 -386 -80 -645 -101
-69 -5 -161 -14 -205 -20 -136 -18 -680 2 -820 30 -27 6 -113 17 -190 26 -77
9 -153 20 -170 25 -16 5 -52 14 -80 20 -27 6 -66 15 -85 21 -19 6 -60 16 -90
24 -117 29 -146 37 -177 51 -17 8 -40 14 -50 14 -10 0 -23 4 -28 8 -6 5 -41
19 -80 31 -38 12 -79 26 -90 31 -11 5 -45 16 -75 25 -30 9 -82 29 -115 45 -33
16 -87 40 -120 55 -90 40 -245 117 -287 142 -21 13 -43 23 -50 23 -6 0 -19 6
-27 14 -9 8 -38 26 -66 42 -27 15 -68 39 -90 53 -22 14 -44 28 -50 31 -69 34
-359 242 -435 311 -19 17 -52 42 -73 56 -21 13 -60 45 -85 71 -26 26 -113 102
-192 168 -80 67 -159 137 -177 155 -77 81 -73 72 -73 172 l0 92 48 45 c92 86
95 87 177 89 29 0 67 -7 90 -18z"/>
<path d="M1981 1459 c-83 -16 -170 -90 -200 -172 -18 -48 -13 -153 9 -196 20
-40 125 -141 146 -141 6 0 29 -12 50 -27 21 -14 64 -39 94 -55 30 -16 110 -57
178 -93 68 -35 140 -70 160 -78 20 -8 69 -29 107 -47 39 -17 84 -38 102 -46
17 -8 36 -14 42 -14 6 0 19 -4 29 -10 29 -16 84 -37 152 -59 36 -12 74 -26 85
-31 20 -8 116 -39 210 -66 137 -40 163 -47 205 -55 122 -22 166 -31 180 -37 8
-3 53 -12 100 -19 47 -7 128 -20 180 -29 52 -8 131 -20 175 -26 109 -15 1181
-15 1290 0 174 24 394 61 515 87 41 9 98 20 125 25 28 4 64 13 80 18 17 6 57
18 90 27 84 24 297 94 315 104 9 5 31 12 50 16 19 4 41 11 50 16 31 17 109 49
120 49 5 0 18 4 28 9 29 17 188 88 208 95 11 3 75 35 144 71 69 35 145 75 170
87 25 13 47 25 50 28 8 8 42 28 93 56 63 33 133 98 155 143 12 25 17 61 17
116 0 68 -4 85 -24 115 -69 100 -140 143 -239 143 -53 0 -74 -6 -135 -38 -40
-21 -84 -46 -99 -56 -15 -11 -70 -42 -123 -69 -53 -28 -103 -54 -113 -59 -50
-27 -255 -121 -263 -121 -5 0 -17 -4 -27 -10 -29 -16 -110 -50 -120 -50 -5 0
-23 -7 -38 -15 -16 -8 -36 -15 -44 -15 -9 0 -20 -4 -25 -9 -6 -5 -41 -19 -80
-31 -38 -12 -78 -26 -87 -31 -10 -5 -28 -9 -40 -9 -12 0 -35 -4 -52 -10 -166
-52 -392 -103 -541 -122 -44 -5 -96 -14 -115 -19 -47 -12 -262 -29 -496 -38
-262 -11 -783 12 -884 38 -19 5 -71 14 -115 20 -44 5 -114 17 -155 25 -41 8
-97 20 -125 25 -27 6 -75 18 -105 26 -91 27 -163 46 -205 55 -52 10 -197 59
-210 71 -5 5 -16 9 -25 9 -8 0 -27 6 -42 14 -15 8 -40 17 -57 21 -17 4 -33 11
-36 16 -4 5 -13 9 -21 9 -32 0 -396 176 -579 280 -164 94 -201 105 -284 89z
m224 -94 c55 -29 123 -65 150 -80 28 -15 68 -37 90 -48 22 -12 42 -23 45 -26
10 -11 90 -48 255 -116 50 -21 104 -44 122 -51 17 -8 36 -14 41 -14 6 0 23 -6
39 -14 46 -24 100 -46 112 -46 6 0 19 -4 29 -9 15 -9 52 -20 222 -67 30 -9 66
-19 80 -24 14 -5 43 -11 65 -15 22 -4 58 -11 80 -15 114 -25 208 -42 280 -51
44 -6 96 -15 115 -20 99 -27 639 -50 904 -39 252 11 451 27 496 39 19 5 71 14
115 19 44 6 112 17 150 25 39 8 108 22 155 31 82 17 168 38 220 56 14 5 41 12
60 16 19 3 41 10 50 15 8 4 49 18 90 30 79 23 85 25 138 52 19 9 38 17 43 17
6 0 31 9 57 21 62 27 77 33 142 59 30 12 87 37 127 56 39 19 76 34 82 34 6 0
11 4 11 8 0 5 35 26 78 47 42 21 95 50 116 63 22 14 76 43 119 65 69 35 88 40
147 40 85 0 139 -28 189 -98 33 -45 36 -55 36 -121 0 -42 -6 -83 -15 -100 -23
-47 -92 -106 -166 -144 -38 -19 -71 -37 -74 -40 -5 -5 -16 -11 -170 -93 -163
-86 -185 -97 -192 -97 -4 0 -33 -12 -65 -26 -32 -14 -74 -32 -93 -40 -19 -8
-43 -19 -52 -24 -10 -6 -23 -10 -30 -10 -7 0 -40 -13 -72 -30 -33 -16 -73 -32
-90 -36 -17 -4 -37 -10 -46 -15 -20 -11 -226 -80 -270 -90 -19 -4 -57 -13 -85
-19 -27 -6 -59 -15 -70 -20 -11 -5 -42 -14 -70 -19 -27 -6 -81 -17 -120 -26
-65 -15 -109 -23 -340 -61 -224 -36 -252 -38 -805 -38 -555 0 -580 2 -810 39
-52 9 -133 21 -180 28 -47 7 -92 16 -100 20 -8 3 -39 11 -67 17 -29 5 -77 15
-105 20 -29 6 -62 15 -73 20 -11 5 -36 12 -55 15 -19 4 -48 10 -65 15 -112 32
-213 63 -230 71 -11 4 -49 18 -85 30 -36 11 -87 32 -113 45 -27 13 -53 24 -58
24 -9 0 -41 13 -124 50 -37 16 -110 47 -145 60 -19 8 -51 23 -70 33 -19 11
-71 39 -115 62 -44 23 -107 57 -140 75 -33 18 -85 46 -115 62 -128 67 -180
136 -180 235 1 113 69 202 172 222 72 15 126 2 233 -54z"/>
</g>
</svg>
